inDegrees=no
num_controls=7
num_derivatives=13
num_iterations=76
num_multipliers=7
num_parameters=0
num_slacks=7
num_states=26
objective=0.445081
objective_accelerations=0.058449
objective_balance=0.002910
objective_effort=0.022381
objective_height=0.355920
objective_ligament=0.005421
solver_duration=1098.121552
status=Solve_Succeeded
success=true
DataType=double
version=3
OpenSimVersion=4.5
endheader
time	/jointset/ground_pelvis/pelvis_tilt/value	/jointset/ground_pelvis/pelvis_tx/value	/jointset/ground_pelvis/pelvis_ty/value	/jointset/hip_l/hip_flexion_l/value	/jointset/hip_l/hip_adduction_l/value	/jointset/hip_l/hip_rotation_l/value	/jointset/back/lumbar_extension/value	/jointset/patellofemoral_l/patellar_flexion_l/value	/jointset/knee_l/knee_flexion_l/value	/jointset/knee_l/knee_adduction_l/value	/jointset/knee_l/knee_rotation_l/value	/jointset/ankle_l/ankle_angle_l/value	/jointset/subtalar_l/subtalar_angle_l/value	/jointset/ground_pelvis/pelvis_tilt/speed	/jointset/ground_pelvis/pelvis_tx/speed	/jointset/ground_pelvis/pelvis_ty/speed	/jointset/hip_l/hip_flexion_l/speed	/jointset/hip_l/hip_adduction_l/speed	/jointset/hip_l/hip_rotation_l/speed	/jointset/back/lumbar_extension/speed	/jointset/patellofemoral_l/patellar_flexion_l/speed	/jointset/knee_l/knee_flexion_l/speed	/jointset/knee_l/knee_adduction_l/speed	/jointset/knee_l/knee_rotation_l/speed	/jointset/ankle_l/ankle_angle_l/speed	/jointset/subtalar_l/subtalar_angle_l/speed	/forceset/tau_hip_flexion_l	/forceset/tau_hip_adduction_l	/forceset/tau_hip_rotation_l	/forceset/tau_knee_flexion_l	/forceset/tau_ankle_angle_l	/forceset/tau_subtalar_angle_l	/forceset/tau_lumbar_extension	lambda_cid13_p0	lambda_cid13_p1	lambda_cid13_p2	lambda_cid13_p3	lambda_cid13_p4	lambda_cid13_p5	lambda_cid14_p0	/jointset/ground_pelvis/pelvis_tilt/accel	/jointset/ground_pelvis/pelvis_tx/accel	/jointset/ground_pelvis/pelvis_ty/accel	/jointset/hip_l/hip_flexion_l/accel	/jointset/hip_l/hip_adduction_l/accel	/jointset/hip_l/hip_rotation_l/accel	/jointset/back/lumbar_extension/accel	/jointset/patellofemoral_l/patellar_flexion_l/accel	/jointset/knee_l/knee_flexion_l/accel	/jointset/knee_l/knee_adduction_l/accel	/jointset/knee_l/knee_rotation_l/accel	/jointset/ankle_l/ankle_angle_l/accel	/jointset/subtalar_l/subtalar_angle_l/accel	gamma_cid13_p0	gamma_cid13_p1	gamma_cid13_p2	gamma_cid13_p3	gamma_cid13_p4	gamma_cid13_p5	gamma_cid14_p0
1	-0.4900543577440538	-0.04669917298609681	0.5716488699903318	1.768054795165116	-0.4735331616255139	0.02660687214757334	-0.2617479120277409	1.457044335136787	1.457044335137834	-0.06266652364078173	-0.1745238313289532	0.3104341987056553	0.03802800847328357	-0.01790917010832976	0.01179789239612566	0.002537479232512076	-0.004198896931366668	-0.00349288843972154	0.002770399798301943	0.0002541367888081232	0.0008624501728913189	0.0008624501728914515	-0.005854635106369239	-0.0003147340578403559	0.02251990698397907	0.01010037175234478	-0.3060115604796801	0.03633113044760077	0.001536097145138048	-0.3282130386935178	-0.008000456847349962	0.01603956117652676	0.2672730647450541	-42.48485975268562	1.310970787124972	-1.502303470423011	14.06008747591184	-641.6310157976645	-42.72919732871874	-0.3345519218028608	1.330091304083741	0.07798641570951241	1.967526702570569	-6.468879683062564	-0.01959550051526662	-2.361712384616027	-0.01665316651917937	-5.528917158289679	-5.528917158289555	-0.6951839791464496	-0.02790906884253427	-1.109808406865005	-0.7319676106923723	5.590204396471528e-09	2.543376967639395e-08	-1.581885572089188e-08	3.952976987192978e-09	-1.06207023988884e-09	3.424667911322639e-08	2.609287044452717e-09
1.01	-0.4901676952110337	-0.04657733174262037	0.571772484232846	1.767690471043839	-0.4735680705082613	0.02651551238169494	-0.261745366044517	1.45677668804551	1.456776688045933	-0.06275725101472694	-0.1745267800986181	0.3106041066852772	0.03809397952047035	-0.00475439493924146	0.01257237279899929	0.02218208378323386	-0.06866041911903381	-0.003481735095104369	-0.0210342862486497	0.0002527430658438562	-0.05439033042135093	-0.05439033042135324	-0.0122897137157384	-0.0002662527983816143	0.01145544176271546	0.003099275599962435	-0.3059664643699389	0.03645058468155583	0.001522009212345701	-0.3279918310425732	-0.008209950442841294	0.01606351168911488	0.2672360461806411	-42.53921749597465	1.305706919847816	-1.496461502227501	14.0083782312969	-641.4952536802291	-42.72948021783721	-0.3370992774529231	1.308758594318855	0.07748206076063509	1.96243221984441	-6.433963767648072	0.01254294846801743	-2.388642532800292	0.007770006142972184	-5.523225704751341	-5.5232257047518	-0.6175048252343119	0.02254969652813819	-1.105702351014887	-0.6833698417685594	-3.684016429383606e-09	1.170161324804018e-08	2.589082569248056e-08	3.66915582034268e-09	-1.133821691487792e-08	7.990805952457455e-08	-1.038958483326183e-08
1.02	-0.4901493673321221	-0.04644768505347827	0.5720924454985714	1.766681696644479	-0.4736026534182596	0.02618634659173821	-0.2617429035022566	1.455956559709338	1.455956559709135	-0.06291229617944062	-0.1745289794610824	0.310663182658435	0.0380901017612815	0.008423899069739999	0.01335898152925508	0.04180688387479895	-0.1330889525478742	-0.003427693889776187	-0.0447908050182249	0.0002374485959969077	-0.1096337988059853	-0.109633798805991	-0.01871819326119485	-0.0001648526114019773	0.000353505691140502	-0.003869389522715394	-0.3059213682601971	0.03657003891551432	0.001507921279570247	-0.3277706233916285	-0.008419444038331902	0.01608746220170797	0.2671990276162291	-42.60052472378954	1.301915330195032	-1.491146010413952	13.99377944597243	-641.457661305262	-42.7083259265443	-0.3446442727978314	1.334795072062409	0.08041208118592706	1.963565810739222	-6.462281931297214	-0.01101792837305796	-2.352078929140731	-0.01943331589576593	-5.527054716368097	-5.527054716368161	-0.693864166363905	-0.01732528333834974	-1.117302576927305	-0.725481404751479	-1.123292269428053e-08	2.171723037799326e-09	6.699874475329602e-08	4.248275647693952e-09	-2.069464656838683e-08	1.232456959084606e-07	-2.179233958346747e-08
1.03	-0.4899991187561156	-0.04631008108048586	0.5726084820284006	1.765028966888059	-0.4736363089182035	0.02562002815141484	-0.2617406534853212	1.454584131743908	1.454584131743857	-0.06313147165005874	-0.1745296521070263	0.3106110179896373	0.03801693459522686	0.02163145376760725	0.01416683332851838	0.06138980089942207	-0.1974347698673874	-0.003278254223001582	-0.06844678376791767	0.0002115287967210853	-0.1648415598719826	-0.1648415598719854	-0.02510325365470753	6.555190289618464e-05	-0.01079582339619466	-0.01073399539346617	-0.3056027248071527	0.03674951401469477	0.001464875508010683	-0.3273883622969892	-0.008470784056958967	0.0161621896293553	0.2669729248041573	-42.58900484520076	1.253906830518104	-1.468029300366156	13.88150833230198	-641.1153331144055	-42.72596476983075	-0.3573913424537413	1.314578147635547	0.08172573897279986	1.95405540457249	-6.417401049510006	0.0316872298220341	-2.368462697131079	0.005674788752117183	-5.516094935661152	-5.516094935660687	-0.6087936371619874	0.04853483936118536	-1.115156378715721	-0.6624545031886621	-1.876422370855542e-08	-7.315286904909741e-09	1.081005233819425e-07	4.836200995394225e-09	-3.004169135432961e-08	1.665596206185969e-07	-3.317880742420873e-08
1.04	-0.4897166261373326	-0.04616424778756552	0.5733200278797257	1.762733445074998	-0.4736677175583567	0.02481792885375611	-0.2617386934462381	1.452659934541028	1.452659934541128	-0.06341409105686432	-0.1745269584037632	0.3104470783691504	0.03787602050547404	0.03487270762493482	0.01500484551484066	0.08090874817397758	-0.2616473638761674	-0.002978321931459571	-0.09194697648751274	0.000179453025266573	-0.2199876462958026	-0.2199876462958024	-0.03140698050090207	0.0005084172390847398	-0.02200148464669118	-0.01741877426228767	-0.3052840813541083	0.03692898911389546	0.001421829736501144	-0.3270061012023485	-0.008522124075580314	0.01623691705703435	0.266746821992083	-42.58447715029863	1.207402061025338	-1.445471432678335	13.80637719458488	-640.8714941939644	-42.72277110549919	-0.3756177915727089	1.341534903954508	0.08644415859771894	1.950771860725697	-6.435637269150564	0.01908059658038169	-2.320921723121229	-0.02066451033154904	-5.51471978793261	-5.514719787932647	-0.6775974569002914	0.02516688103964036	-1.128569009559594	-0.6895160043656958	-2.665491852746607e-08	-1.778581522845933e-08	1.500909013828913e-07	5.421363566910087e-09	-3.972169627534064e-08	2.095096083166865e-07	-4.485522027046265e-08
1.05	-0.4893014886733426	-0.04600984711736929	0.5742263731152546	1.759796569598227	-0.4736952982856046	0.02378175176611584	-0.2617371326605539	1.45018467703436	1.450184677034366	-0.0637593310688874	-0.1745187084281239	0.3101707576743584	0.03766924799592117	0.04816609166361446	0.01588385038953625	0.1003426663448892	-0.3256943288329077	-0.002503359069158784	-0.1152465252079944	0.0001276186281063705	-0.2750445846951144	-0.2750445846951105	-0.03762501702609371	0.001187403396146575	-0.03327573635311116	-0.02389395584873299	-0.3046719400633233	0.03713904638878129	0.001350089818170254	-0.3264844213298857	-0.008383612793834648	0.01636595894603067	0.2663160249808975	-42.49651920059481	1.112721989813325	-1.403835372501922	13.62336645146623	-640.3175864569812	-42.76611089841414	-0.3997639212754805	1.324931065109406	0.08991413887274501	1.937046926905313	-6.3842217186007	0.06685351290797097	-2.328219260948563	0.001794272943725205	-5.498278888245757	-5.498278888245148	-0.5915298903173066	0.09618524021943886	-1.128817410239192	-0.6202715758370557	-3.455684440277159e-08	-2.828707850141017e-08	1.921090481142245e-07	6.006439801670187e-09	-4.941210620057256e-08	2.524482229831495e-07	-5.654069389813884e-08
1.06	-0.4887530791867091	-0.0458463993010326	0.5753265265588187	1.756220225349954	-0.4737170995078597	0.02251382962839739	-0.2617362427833689	1.447159430539235	1.447159430539143	-0.06416627607414192	-0.1745022844394987	0.3097813016306908	0.03739897320249296	0.06152711215367734	0.01681427474293327	0.1196703897810455	-0.3895411181762456	-0.001822420932742383	-0.1382959865059544	4.527132502298037e-05	-0.3299854439870363	-0.3299854439870278	-0.04374797915083418	0.002143219840408331	-0.04462855442176841	-0.03011923103730097	-0.3040597987725448	0.03734910366369431	0.001278349899972604	-0.3259627414574193	-0.008245101512080504	0.01649500083506909	0.2658852279697009	-42.41561713069577	1.019598873967547	-1.362814649584634	13.47736054469026	-639.8624045763557	-42.78982331211582	-0.4303492459778217	1.35506219423119	0.09672805433800437	1.929532913774636	-6.395602146470059	0.06027565140342937	-2.270904238616949	-0.02676709151622006	-5.491503966454572	-5.491503966454466	-0.6585825768100847	0.08053293847947027	-1.14428228200706	-0.6395347247903422	-4.175957095830834e-08	-3.781258809953729e-08	2.322311146540404e-07	6.88091762125216e-09	-5.849978357035942e-08	2.90474905260719e-07	-6.711972766077466e-08
1.07	-0.4880707485142305	-0.04567335722846672	0.5766193483413322	1.752006612302196	-0.4737310017359981	0.0210167361319706	-0.2617362704149624	1.443585439365998	1.443585439365832	-0.0646339155162385	-0.1744748989031994	0.3092778714975953	0.03706775321622331	0.07494629759829566	0.01780582854810577	0.1388685086316043	-0.4531271298252949	-0.0009148191683974224	-0.1610719197068554	-4.869208667335537e-05	-0.384785365461689	-0.3847853654616844	-0.04975530515686686	0.0033881983189449	-0.05607495945984269	-0.03607271381589848	-0.30315370977865	0.03761073834599182	0.001176619926399051	-0.3253070779466435	-0.00789781999388579	0.0166574264237512	0.2652528545588653	-42.24613298851388	0.8888878302290351	-1.307144150584726	13.222397861018	-639.0998329664129	-42.83623204052077	-0.4680564688735326	1.336431289592821	0.1021239270191666	1.911119018029814	-6.331954447346818	0.1124535064212036	-2.273367854908369	-0.0003951325384255397	-5.470106781330165	-5.470106781330817	-0.568149823638688	0.1546924371992532	-1.147445434634663	-0.5654717198132609	-4.892510606066589e-08	-4.728619590645036e-08	2.722523258645202e-07	7.770789142154447e-09	-6.755540069783538e-08	3.282403145388792e-07	-7.763990823909981e-08
